<svg xmlns="http://www.w3.org/2000/svg" xmlns:xlink="http://www.w3.org/1999/xlink" viewBox="0 0 800 649.43"><defs><style>.cls-1{fill:url(#linear-gradient);}.cls-2{fill:#2d201f;}.cls-17,.cls-2{opacity:0.2;}.cls-3{fill:#c90a6d;}.cls-4{fill:url(#linear-gradient-2);}.cls-5{fill:url(#linear-gradient-3);}.cls-6{fill:url(#linear-gradient-4);}.cls-7{fill:url(#linear-gradient-5);}.cls-8{fill:url(#linear-gradient-6);}.cls-9{fill:url(#linear-gradient-7);}.cls-10{fill:url(#linear-gradient-8);}.cls-11{fill:url(#linear-gradient-9);}.cls-12{fill:url(#linear-gradient-10);}.cls-13,.cls-14,.cls-15,.cls-16,.cls-17,.cls-18,.cls-20,.cls-21{fill:#ffdbcf;}.cls-13{opacity:0.5;}.cls-15{opacity:0.4;}.cls-16{opacity:0.6;}.cls-18{opacity:0.3;}.cls-19{fill:url(#linear-gradient-11);}.cls-20{opacity:0.1;}.cls-21{opacity:0.7;}</style><linearGradient id="linear-gradient" x1="297.46" y1="102.05" x2="644.72" y2="102.05" gradientTransform="translate(-71.09 71.58)" gradientUnits="userSpaceOnUse"><stop offset="0" stop-color="#fe7922"/><stop offset="0.56" stop-color="#fe7824"/><stop offset="0.76" stop-color="#fe772b"/><stop offset="0.91" stop-color="#fe7336"/><stop offset="1" stop-color="#fe7043"/></linearGradient><linearGradient id="linear-gradient-2" x1="400" y1="179.6" x2="400" y2="612.04" gradientUnits="userSpaceOnUse"><stop offset="0" stop-color="#fe7922"/><stop offset="0.17" stop-color="#fe7043"/><stop offset="0.35" stop-color="#fc564c"/><stop offset="0.59" stop-color="#f93756"/><stop offset="0.8" stop-color="#f8255d"/><stop offset="0.95" stop-color="#f71e5f"/></linearGradient><linearGradient id="linear-gradient-3" x1="43.63" y1="555.69" x2="43.63" y2="440.55" gradientUnits="userSpaceOnUse"><stop offset="0" stop-color="#ff1d00" stop-opacity="0.8"/><stop offset="1" stop-color="#f60bc5" stop-opacity="0"/></linearGradient><linearGradient id="linear-gradient-4" x1="105.19" y1="467.51" x2="105.19" y2="417.77" xlink:href="#linear-gradient-3"/><linearGradient id="linear-gradient-5" x1="233.47" y1="644.94" x2="233.47" y2="500.72" xlink:href="#linear-gradient-3"/><linearGradient id="linear-gradient-6" x1="287.87" y1="559.57" x2="287.87" y2="477.67" xlink:href="#linear-gradient-3"/><linearGradient id="linear-gradient-7" x1="358.53" y1="526.17" x2="358.53" y2="456.92" xlink:href="#linear-gradient-3"/><linearGradient id="linear-gradient-8" x1="502.23" y1="602.48" x2="502.23" y2="470.88" gradientUnits="userSpaceOnUse"><stop offset="0" stop-color="#ff8000" stop-opacity="0.8"/><stop offset="1" stop-color="#f61a0b" stop-opacity="0"/></linearGradient><linearGradient id="linear-gradient-9" x1="553.87" y1="521.87" x2="553.87" y2="459.2" xlink:href="#linear-gradient-3"/><linearGradient id="linear-gradient-10" x1="703.17" y1="500.65" x2="703.17" y2="403.69" xlink:href="#linear-gradient-3"/><linearGradient id="linear-gradient-11" x1="504.9" y1="631.45" x2="499.27" y2="513.19" xlink:href="#linear-gradient-3"/></defs><g id="object"><rect class="cls-1" x="226.37" y="-226.12" width="347.27" height="799.51" transform="translate(573.63 -226.37) rotate(90)"/><path class="cls-2" d="M0,167.09V412.67l.37.59C4,419,7.63,423.35,19.4,423.35c.61,0,1.26,0,1.94,0s1.28-.07,2-.15l3.6-.44.83,3.53c4.09,17.46-1.27,47.86-4.82,68-2.41,13.68-4.5,25.48-4.33,33.36.46,22.23,15.2,32.35,28.71,32.35,14.31,0,29.38-11.12,30.5-32.37.8-15.34-2.75-30.94-6.19-46-1-4.49-2-8.71-2.82-12.88-.37-1.84-.8-3.8-1.25-5.85-2.52-11.61-6-27.43-1.73-37.66,2.36-5.71,5.76-9,9.32-9,4.28,0,9.22,4.35,12.9,11.35,1.77,3.38.88,7.93-.14,13.21-1.19,6.11-2.53,13,.17,20a21.41,21.41,0,0,0,20.26,14c10.62,0,20-7,22.24-16.61,1-4.24.39-9-.2-13.61s-.9-8.14-.51-10.19l.46-2.37,2.3-.72a18.81,18.81,0,0,1,5.87-.63c2.14.05,4.82.1,6.15,3.94s1.31,10.28,1.25,16.41c-.1,10.85-.22,23.15,7.37,30.81,4.19,4.23,10.06,6.38,17.46,6.38,5.78,0,12.56-1.27,20.72-3.86l1.31-.41c4.65-1.49,9.05-2.9,12.57-2.9,3.08,0,5.73,1,8.65,5.81,5.39,8.91,3.38,18.67,1.25,29-.56,2.7-1.14,5.5-1.6,8.35-.67,4.19-1.31,8.16-1.63,11.44-.28,2.77-.84,6.8-1.5,11.46-5,35.56-9,75,6.27,92.56a25.24,25.24,0,0,0,19.65,8.75c.58,0,1.17,0,1.77-.05,10.2-.55,18.64-4.81,24.4-12.32,10.91-14.24,12.59-39.62,5-75.41-.26-1.26-.55-2.52-.85-3.79l-1.36-5.68-4.78-16.27c-4.27-14.49-8-28.59-7.17-41.58.48-7.2,5.83-14.54,10.6-14.54,1.67,0,3.46.91,5.33,2.7,7.12,6.82,5.42,17.31,2,32.54a110.23,110.23,0,0,0-2.74,15.76c-.09,1.35-.13,2.68-.13,4l.05,12,5.43,7.85a24.61,24.61,0,0,0,2.25,2.8,21.52,21.52,0,0,0,15.82,7A22.1,22.1,0,0,0,309.22,555c5.14-6.35,6.85-15.12,4.82-24.7-.57-2.69-1.38-5.81-2.24-9.11-4.71-18.22-11.84-45.75,5.65-52.19a10,10,0,0,1,3.37-.7c4.5,0,8.44,4.6,14.17,27.48.88,3.5,1.71,6.81,2.61,9.62,5.56,17.4,15.66,28.2,26.35,28.2,11,0,18.76-10.45,21.79-29.43.15-.88.28-1.77.41-2.65,1.4-9.22,2.41-14.17,8.44-17.17a10.57,10.57,0,0,1,4.74-1.24c4.53,0,9.4,3.68,15.05,7.94s12.25,9.24,20.34,11.53a31.42,31.42,0,0,0,8.52,1.28c17.09,0,21.95-16.08,25.5-27.82,2.47-8.18,4-11.85,5.51-13.54l1.37-1.51,4.1.46,1,1.53c1,1.5,2.36,4.59,3,10.84a122.88,122.88,0,0,1,.1,18l-.07,1.32c-.26,5.47-1,12.57-1.94,20.8-3.45,31.38-7.75,70.44,7.5,88.3a26.36,26.36,0,0,0,19.27,9.27l1.15,0a20.1,20.1,0,0,0,16.89-8.78c9.34-13,9.88-43.41,1.47-83.46l-2.29-10.86-2.56-9.09c-.63-2.26-1.22-4.19-1.68-5.57-.68-2-1.4-4-2-5.78-4.09-11.34-6-17.6-1.88-25.82,2.28-4.52,5.39-7,8.76-7,5.17,0,9.8,5.19,10.32,11.56.34,4.15-1.11,9.89-2.5,15.44a91.61,91.61,0,0,0-3,16.34l-.67,10.55,4.88,7.14c4.54,6.66,14.15,11,24.47,11,9,0,16.73-3.39,21.16-9.3,10.9-14.52,2.75-31.05-2.64-42a55.54,55.54,0,0,1-3.14-7l-.17-1c-.21-6.35-.07-27.87,10.76-38.16,3.92-3.72,9-5.46,16-5.46,5.35,0,11,.95,17,2,6.72,1.12,13.72,2.27,20.21,2,10.85-.44,19.9-4.57,27.69-12.63,3-3.08,9.5-6.4,14.89-6.4,5.16,0,6.25,3.49,6.65,7.27l0,.43v.1c-.06,2.18-1.16,6.7-3.44,15.41-5.44,20.7-12.88,49-1,64.43,3.45,4.48,10.19,9.82,22.67,9.82,1.37,0,2.8-.07,4.25-.19,9.89-.84,17.18-4.47,21.66-10.79,9-12.74,4-32.23-.89-51.08-2-7.73-3.88-15-4.59-21.12-.62-5.31-.11-8.09.43-9.48l.64-1.67,1.66-.65a13.32,13.32,0,0,1,4.73-.69,36.35,36.35,0,0,1,5.35.46A106.61,106.61,0,0,0,756,412.84c16.49,0,28.72-5.52,43.12-14.44.29-.18.57-.38.86-.57V167.09Z"/><path class="cls-3" d="M790.64,393.49c-15.7,9.73-25.82,13.18-38.66,13.18a99,99,0,0,1-14.93-1.29c-9.81-1.51-16.15,0-19.73,4.59-6,7.8-2.11,23,2,39.06,4.38,17,8.92,34.51,2.17,44.05-3,4.25-8.08,6.62-15.47,7.25-9.07.75-15.68-1.4-19.52-6.37-9.33-12.1-2.5-38.12,2.49-57.13,2.25-8.55,4-15.29,3.68-18.7-1.24-12.48-8.89-15.1-15.09-15.1-8,0-16.78,4.63-21,9-6.28,6.51-13.26,9.7-21.94,10.05-5.73.23-11.87-.8-18.47-1.9-6.09-1-12.39-2.07-18.44-2.07-9.27,0-16.19,2.48-21.78,7.79-13.54,12.86-13.66,37.75-13.38,45.07.11,2.74,2,6.55,4.16,11,4.74,9.62,11.24,22.81,3.47,33.18-2.82,3.75-8.07,5.91-14.4,5.91-7.6,0-14.66-3-17.57-7.4-4.82-7.33-2.3-17.37.14-27.08,1.64-6.5,3.18-12.64,2.73-18.18-.88-10.84-9.11-19.33-18.75-19.33-6.73,0-12.52,4.14-16.32,11.66-6,11.85-2.52,21.42,1.48,32.5.62,1.71,1.32,3.64,2,5.6,2.88,8.57,8.1,29.18,10.67,50.84,2.06,17.35,2.95,40.2-4.46,50.51A12,12,0,0,1,505,605.36a17.8,17.8,0,0,1-13.23-6.3c-12.88-15.09-8.63-53.73-5.53-82,.92-8.33,1.71-15.52,2-21.26l.07-1.29c.53-10.85,1.79-36.24-11.81-39.18A16.44,16.44,0,0,0,473,455c-10.07,0-13.13,10.14-16.38,20.89s-6.58,21.8-17.39,21.8a23.36,23.36,0,0,1-6.22-1c-6.56-1.86-12.15-6.07-17.55-10.15-6.57-5-12.78-9.64-20.15-9.64a18.73,18.73,0,0,0-8.49,2.12c-10.26,5.1-11.62,14.07-13.06,23.57-.12.83-.25,1.66-.38,2.5-3.1,19.4-9.75,22.3-13.44,22.3-6.78,0-14-8.76-18.3-22.32-.81-2.55-1.61-5.71-2.45-9.1-3.58-14.3-8.48-33.88-22.38-33.88a18.23,18.23,0,0,0-6.29,1.22c-24.68,9.09-16.4,41.05-10.93,62.21.84,3.22,1.63,6.27,2.16,8.79,1.5,7,.39,13.29-3.11,17.61A13.69,13.69,0,0,1,288,557.15a13.13,13.13,0,0,1-9.64-4.3c-2.85-3.05-6.09-9.05-5.34-20.28a103.37,103.37,0,0,1,2.56-14.49c3.12-14,6.66-29.86-4.43-40.49-3.5-3.35-7.26-5-11.18-5-10.35,0-18.34,11.82-19,22.43-1,15.73,3.8,32.08,8.48,47.89,2.24,7.56,4.35,14.7,5.85,21.75,4.86,22.87,8.21,53.33-3.43,68.51-4.27,5.57-10.37,8.61-18.14,9-6,.3-10.95-1.65-14.57-5.81-14.06-16.17-7.69-61.52-4.27-85.9.66-4.72,1.24-8.81,1.52-11.74s.92-6.88,1.58-11c2.24-13.9,5.32-33-.78-43-4.08-6.75-9.13-9.89-15.88-9.89-4.85,0-9.85,1.6-15.15,3.3l-1.29.41c-7.22,2.29-13.33,3.45-18.16,3.45-5.13,0-8.87-1.26-11.45-3.86-5.11-5.16-5-15.14-4.92-24.79.14-14.68.28-28.56-15.7-28.88-6.8-.13-11.47,1.35-14.29,4.55-4.18,4.74-3.26,11.94-2.38,18.9.51,4,1,7.84.35,10.59-1.38,5.85-7.26,10.09-14,10.09a13,13,0,0,1-12.38-8.64c-1.81-4.68-.76-10.09.25-15.32,1.22-6.27,2.48-12.75-.67-18.75C86.17,415.77,78.74,410,71.08,410c-7.15,0-13.4,5.18-17.14,14.21-5.25,12.67-1.63,29.29,1.28,42.65.44,2,.86,4,1.22,5.76.85,4.24,1.83,8.53,2.87,13.09,3.31,14.53,6.73,29.55,6,43.71-.85,16-11.73,24.36-22,24.36-9.84,0-19.91-7.44-20.26-24.06-.14-7.06,1.88-18.49,4.21-31.73,5.07-28.74,11.39-64.5.43-82.21l-.69-1.12-1.25.43A32.51,32.51,0,0,1,17,417.15c-9.48.3-10.8-1.76-13.52-6.1a44,44,0,0,0-3.5-5v7.22a11.73,11.73,0,0,0,4.18,4.81A21.2,21.2,0,0,0,16,421.62c.79,0,9.9-2.34,9.53-3,9.37,17.06,2.33,51.26-2.53,78.81-2.37,13.39-4.41,25-4.26,32.34.39,18.85,13.11,34.35,24.55,34.35,11.86,0,24.37-16.5,25.32-34.53.77-14.63-2.72-30-6.1-44.79-1-4.45-2-8.65-2.81-12.84-.36-1.8-.78-3.71-1.24-5.82-2.81-12.9-6.3-29-1.45-40.69,3.21-7.74,8.35-12.17,14.11-12.17,6.4,0,12.77,5.15,17.48,14.12,2.61,5,1.47,10.89.36,16.61s-2.25,12.58-.09,18.14c2.61,6.72,8.38,11.74,15.44,11.74,8.24,0,15.47-7.33,17.19-14.64.79-3.33.27-7.43-.28-11.76-.8-6.23-1.62-12.68,1.58-16.31,2.16-2.45,6-3.57,11.76-3.43,12.73.25,12.62,12.55,12.49,25.57-.1,10.32-.2,21,5.87,27.12,3.22,3.25,7.73,4.84,13.78,4.84,5.17,0,11.61-1.22,19.16-3.62l1.29-.41c5-1.61,9.82-3.14,14.15-3.14,5.49,0,9.65,2.64,13.08,8.31,5.46,9,2.5,27.41.34,40.82-.67,4.12-1.3,8-1.6,11.15-.28,2.86-.86,6.94-1.52,11.68a431,431,0,0,0-4.17,56.33c-.15,15.61,1.06,37.64,19.73,42.31,13.1,3.28,27.43-4.89,32.11-16.91,5.33-13.69,4-30.62,2.75-45a190.8,190.8,0,0,0-3.54-22.9c-1.52-7.17-3.66-14.38-5.92-22-4.59-15.52-9.35-31.58-8.34-46.72.6-9.16,7.22-19.37,15.76-19.37,3.05,0,6.05,1.39,8.91,4.14,9.76,9.35,6.43,24.26,3.49,37.42a103.85,103.85,0,0,0-2.62,15c-.84,12.41,2.92,23.25,6.21,26.78a16.4,16.4,0,0,0,12,5.34A17,17,0,0,0,301.16,558c4.14-5.11,5.48-16.38,3.78-24.4-.55-2.58-1.35-5.68-2.2-9-5.18-20-13-50.22,8.88-58.28a15.17,15.17,0,0,1,5.16-1c11.34,0,15.88,18.17,19.21,31.45.85,3.4,1.65,6.6,2.5,9.25,4.77,14.95,14.19,26.62,22.43,26.62,4.73,0,12.19-5.27,15.67-27.09.14-.83.26-1.67.41-2.61,1.29-8.59,2.52-16.69,11.25-21a15.75,15.75,0,0,1,7-1.78c13.31,0,22.81,14.32,33.51,19.91,18,9.4,26.47-8.46,30.95-23.3,2.88-9.54,5.6-18.55,13.23-18.55a13.23,13.23,0,0,1,2.82.33c10.87,2.35,9.71,25.8,9.22,35.82l-.07,1.28c-.26,5.65-1.05,12.82-2,21.13-3.17,28.79-7.5,71.25,6.3,87.41a21,21,0,0,0,15.58,7.45,15,15,0,0,0,13.59-6.6c8-11.18,7.18-37.92,5-55.85-2.6-21.91-7.89-42.8-10.82-51.49-.65-1.94-1.33-3.82-2-5.65l0-.1c-3.72-10.32-6.95-19.24-1.6-29.83,3.21-6.36,8-9.86,13.38-9.86,7.94,0,14.74,7.17,15.48,16.32.41,5-1.07,10.88-2.64,17.13-2.62,10.39-5.32,23.15.3,31.68,3.49,5.31,11.65,8.88,20.31,8.88,7.37,0,13.58-2.63,17-7.22,9-12,2-28.24-3.16-38.65-2-4.06-3.73-7.57-3.81-9.61-.27-7-.19-30.65,12.36-42.56,4.94-4.7,11.14-6.89,19.52-6.89,5.77,0,12,1,18,2.05,6.7,1.12,13,2.17,19,1.92,9.58-.38,17.26-3.9,24.17-11,3.74-3.87,11.53-8,18.62-8,4.84,0,10.82,2.11,11.82,12.15.28,2.81-1.42,9.31-3.58,17.55-5.16,19.65-12.23,49.61-1.91,63,4.56,5.92,12.15,8.51,22.38,7.64,8.42-.71,14.27-3.53,17.87-8.62,7.64-10.78,2.91-32.11-1.67-49.81-3.95-15.27-7.68-29.69-2.62-36.22,2.76-3.57,8.16-4.66,16.63-3.36A101.75,101.75,0,0,0,752,410c13.53,0,24.1-3.57,40.4-13.67a49.9,49.9,0,0,0,7.62-5.85v-4.6A48.53,48.53,0,0,1,790.64,393.49Z"/><path class="cls-4" d="M0,167.09V409c3,5.54,5.36,9.07,17.06,8.68a33.46,33.46,0,0,0,9.28-2.22c15.89,25.24-5.2,90.84-4.73,113.41.72,34.87,43.32,33,45.07-.25,1-18.73-5.22-38.94-8.88-57.15-2.69-13.4-8.45-33.4-2.58-47.6,7.69-18.58,24.86-17.57,35,1.79,5.56,10.6-3.78,23.28.36,33.93,5.76,14.85,26.09,11.81,29-.63,2.5-10.64-10.24-34.48,14.94-34,34.44.69-13.06,74.25,50.68,54,11.72-3.72,22.61-7.82,30.72,5.58,7.56,12.49.32,39.72-1,53.13-2.13,21.74-20.05,107.07,18.78,105,37.37-2,26.85-60.34,22.85-79.21-4.7-22.11-15.81-46.45-14.3-69.26.92-14.06,14.89-28.92,27.87-16.47,14.52,13.91,2.54,37.68,1.45,53.88-2.52,37.32,37.86,31.6,31.47,1.56-3.78-17.78-19.5-59.32,7.89-69.41,21-7.72,24.59,26.08,29.32,40.88,8.61,26.91,28.81,35,34.43-.19,1.61-10.08,2.17-19.81,12.69-25,17-8.47,27.49,12.76,45.19,17.76,32.31,9.13,18.64-45.07,43.59-39.68,13,2.8,11.12,27.34,10.64,37.42-1.44,30.58-18.5,109.23,18.11,111,31.82,1.51,13.66-85.45,5.94-108.42-4.52-13.44-10.22-23.79-3.54-37,9.78-19.38,31-10.37,32.45,7.16,1.12,13.76-11,33.15-2.65,45.91,5.93,9,26.68,11.64,34.24,1.56,11.87-15.83-7-36.92-7.35-45-.56-14.23,2.06-33.67,12.94-44,15.6-14.82,39.47-2.69,57.8-3.43,9.35-.38,16.54-3.92,22.88-10.48,8-8.25,31.54-16.27,33.69,5.29,1.3,13.1-33.17,87.52,14.85,83.45,54.85-4.65-26-103.65,30.65-95,22.24,3.41,34.35.43,54.54-12.08a49.21,49.21,0,0,0,8.62-6.86V167.09Z"/><path class="cls-5" d="M42.82,454.37s-30.33,93.57,1.52,91.92C76,544.65,40.14,446.75,42.82,454.37Z"/><path class="cls-6" d="M104.44,423.56s-21.72,40.4,1,39.9S104.44,423.56,104.44,423.56Z"/><path class="cls-7" d="M231.21,517.5s-40.88,117.93,4.55,115.66C276.16,631.14,231.21,517.5,231.21,517.5Z"/><path class="cls-8" d="M285.26,487.2s-23.24,67.68,3.53,65.66S285.26,487.2,285.26,487.2Z"/><path class="cls-9" d="M356.47,465S334.25,520,360,520.53C383.24,521,356.47,465,356.47,465Z"/><path class="cls-10" d="M497.39,486.19S471.63,593.26,504,591.75,497.39,486.19,497.39,486.19Z"/><path class="cls-11" d="M551.94,466.49s-34.07,54.62,4,50C589.31,512.45,551.94,466.49,551.94,466.49Z"/><path class="cls-12" d="M703,415s-38.41,77.29,0,77.78C742.35,493.26,703,415,703,415Z"/><path class="cls-13" d="M49.89,544.27c-18.34,3.74,6.06-20.2,7-30.73,6.9,7.5,6,21.58-3.93,29.72"/><path class="cls-14" d="M56,487.7s-32.32-77.78,20.2-86.87C76.15,400.83,18.58,398.81,56,487.7Z"/><path class="cls-14" d="M133.73,420s-25.25-6.06-19.19,29.29c0,0,6.06,11.12-9.09,14.15a12.94,12.94,0,0,0,5-12.12C109.49,443.25,104.44,409.92,133.73,420Z"/><path class="cls-14" d="M31.71,420s-1-13.13-15.15-6.06C16.56,414,31.71,397.8,31.71,420Z"/><path class="cls-15" d="M152.94,438.35c-1.37,9.3-4.46,40.08,12.11,38.24,18.18-2,50.5-15.15,56.57,10.1-1.67-6.92-2.42-12.21-9-16.66-16.23-10.89-41.83,7.88-53.57-4.08C153.19,460,153.37,446.12,152.94,438.35Z"/><path class="cls-14" d="M151.92,461.44s3,18.18,25.25,13.13C177.17,474.57,151.92,488.71,151.92,461.44Z"/><path class="cls-16" d="M247.88,472.55s-18.18,5.05-2,80.81c18.66,87.46-11.11,79.8-11.11,79.8s25.25,1,7.07-78.79S247.88,472.55,247.88,472.55Z"/><path class="cls-17" d="M233.83,623.15c11.72-.86,4.73-33.29,1.68-44C227.79,552.08,207.47,625.08,233.83,623.15Z"/><path class="cls-15" d="M237.78,470.53s23.23-17.17,36.37,1C274.15,471.54,258,441.23,237.78,470.53Z"/><path class="cls-14" d="M309.5,458.41s-22.22,11.44-17.17,47.47c6.25,44.57,9.09,44.45-7.07,46.47,0,0,11.15,6,3-45.46C282.23,468.51,309.5,458.41,309.5,458.41Z"/><path class="cls-15" d="M360,524.57s6.52-3.29,14.14-34.85c7.07-29.29,28.28-18.18,44.45-5.05,18,14.66,28.28,18.18,35.35-8.08,0,0-8.08,29.29-32.32,4s-45.46-26.26-52.53,7.07C369.1,487.7,368.09,516,360,524.57Z"/><path class="cls-14" d="M376.17,481.64s9.09-19.19,35.36-4C411.53,477.6,382.23,447.29,376.17,481.64Z"/><path class="cls-14" d="M460,463.46s8.08-18.19,27.28-4C487.29,459.42,468.09,432.14,460,463.46Z"/><path class="cls-18" d="M444.63,463.18c-13.38-4.38-24.85,21.47-3.81,20.48l4-3C452.5,477.46,453,465.91,444.63,463.18Z"/><path class="cls-19" d="M488.46,566.15c-1.17,21.56,16.39,38.21,25.73,15.81,4.58-11-4.42-82.25-16.8-81.13C490,501.51,488.56,564.35,488.46,566.15Z"/><path class="cls-16" d="M598.4,413s-32.32,3-37.37,36.36c0,0,0,22.23,7.07,38.39,0,0,13.13,28.28-8.08,28.79,0,0,13.13-4.55,4-26.77S537.41,415.85,598.4,413Z"/><path class="cls-14" d="M503.45,485.68s30.3,106.07,7.07,116.17C510.52,601.85,523.65,582.66,503.45,485.68Z"/><path class="cls-17" d="M556.33,496.78c-16.84-5.48-22.46,18.18-6.53,19.59C561.15,517.37,569.27,501,556.33,496.78Z"/><path class="cls-20" d="M652.06,376.63c-6.37,6.22-10.17,15.81-17.13,21.3-5.56,4.38-19.47,3.43-19.44,15.62,0,9.61,7.91,9.44,13.91,8.49,11.7-1.85,30-10.3,36.88-22.46C674,386.1,666.76,362.27,652.06,376.63Z"/><path class="cls-14" d="M560.69,457.73s-.67-39.73,37-44.44C597.73,413.29,551.94,410.59,560.69,457.73Z"/><path class="cls-21" d="M634.77,419.35s17.06-5.59,28-17.18c10.44-11.11,26-4.79,32.32,7.75,0,0-11.11-35-37-12.12C658,397.8,648.24,413.29,634.77,419.35Z"/><path class="cls-14" d="M711.54,426.08s24.92,59.6-.67,65.66C710.87,491.74,727,483.32,711.54,426.08Z"/><path class="cls-20" d="M701.47,465.82c-15-1.65-18.05,21.89-2.83,22.9C719,490.06,717.87,467.63,701.47,465.82Z"/><path class="cls-17" d="M798,365.66c0-.06-.07-.13-.11-.18-2.21-3-8.32-2.45-13.79-1.36-13.12,2.61-27.86-1.69-40.4,3.69-8.55,3.67-13.21,15.23-7.23,23.36,12,16.27,54.29-2.84,60.72-17,.33-.73.59-1.4.81-2Z"/><path class="cls-18" d="M800,377.34c-6.25,5.85-28.65,23.92-61.53,18.33,0,0-20.82-5.94-24.22,13.51.21-1,3.55-14.57,26.25-10,22.31,4.47,48.22-2.54,59.5-20.43Z"/><path class="cls-14" d="M55.62,494.1s15.48,47.14-13.47,50.51C42.15,544.61,79.86,554,55.62,494.1Z"/><path class="cls-20" d="M178.85,435.49c-9.91-2-17.86,4.16-18.85,14-1.32,13.06,12.58,18.45,23.4,15.15C200.21,459.49,194.53,438.6,178.85,435.49Z"/></g></svg>